<?xml version="1.0" encoding="UTF-8"?><svg xmlns="http://www.w3.org/2000/svg" viewBox="0 0 19.6 18.49"><defs><style>.d{fill:#fff;}</style></defs><g id="a"/><g id="b"><g id="c"><g><path class="d" d="M17.07,10.88c-.1,.03-.22-.02-.25-.13-.03-.1,.02-.21,.12-.25,.05-.02,.1-.04,.15-.07,.73-.38,.8-1.34,.66-2.14-.03-.17-.06-.34-.11-.49-.11-.38,.48-.54,.57-.15,.29,1.13,.18,2.82-1.14,3.23Z"/><g><path class="d" d="M16.38,5.21s.42,.4,.84,1.03"/><path class="d" d="M16.58,5c.32,.36,.57,.73,.8,1.13,.06,.1,.02,.22-.07,.27-.09,.05-.2,.03-.26-.05-.27-.34-.57-.67-.88-.93-.31-.26,.14-.73,.41-.42h0Z"/></g><path class="d" d="M4.6,10.29c-.22-.29-.59-.55-1.18-.72-3.02-.88,.9-4.44,.9-4.44,.55-.12,1.06-.23,1.53-.32,.02,.78,.15,2.1,.72,2.62,.6,.55-1.15,1.91-1.97,2.86Z"/><path class="d" d="M4.77,14.91c-.54-.11,.01-1.17,.17-2.28,.32,.31,.72,.64,1.16,.87,.38,.21,.8,.33,1.22,.3,.14-.02,.29-.06,.43-.12-.01,.01-.02,.03-.02,.05-.2,.59-.25,1.2,.02,1.86,.84,1.98-1.97-.49-2.98-.68Z"/><path class="d" d="M6.5,2.57c-.23,.22-.37,.57-.45,.88-.6-.01-1.43,1.1-1.69,.92-.01,0-.04-.04-.05-.11-.02-.13-.04-.33,.02-.53,.32-.32,1.03-.88,2.17-1.16Z"/><path class="d" d="M17.2,12.98c-1.42,3.33-4.74,5.84-8.92,5.48C3.47,18.18-.44,13.57,.04,8.76,.3,4.86,2.92,2.07,6.11,.99c.36,.23,1.02,.73,.54,1.16-.29,.09-.57,.2-.84,.32C3.39,3.56,1.48,5.8,1.18,8.86c-.76,7.03,7.68,11.48,13.11,6.96,.92-.73,1.62-1.67,2.1-2.7,.32-.02,.59-.07,.81-.14Z"/><path class="d" d="M13.9,10.08c.24,.37,.49,.79,.62,1.17-.77,.16-1.4,0-.85-.73,.1-.14,.18-.28,.23-.44Z"/><path class="d" d="M17.35,3.83C14.91,1.26,11.04-.88,7.45,.36c-.18,.03-.39,.23-.42,.4-.01,.35,.37,.39,.52,.78,.21,.45-.1,.98-.57,1.11-.57,.22-.37,1.04-.5,1.53-.03,.34-.12,.85,0,1.3,.14,.51,.31,.75,.41,1.11,.36,1.12,.49,1.74-.38,2.75-.45,.62-.9,1.27-1.28,1.96-.1,.18-.1,.41,.01,.59,.39,.56,.87,1.07,1.59,1.18,.13,.05,.25,.07,.41,.04,.1,0,.3-.12,.31-.14,1.19-.91,2.34-2.38,2.9-3.57,.44-.72,.7-1.54,.76-2.37,1.97,1,3.47,2.86,3.75,5.08,.05,.28,.26,.52,.56,.55,2.25,.44,4.08-1.64,4.07-3.75-.07-1.94-1.02-3.65-2.25-5.08Zm-1.08,7.5c-.19-.53-.47-1.01-.74-1.48-1.03-1.82-2.69-3.26-4.61-4.05-.33-.14-.72,.13-.68,.49,.07,2.22-1.59,4.27-3.22,5.65-.18-.04-.4-.22-.57-.41,.59-1.11,1.58-2.06,1.73-3.38-.03-.64-.23-1.27-.44-1.85-.31-.8-.63-1.13-.35-1.98,.07-.28,.12-.56,.17-.84,.97-.48,1.27-1.73,.64-2.55,3.91-1.1,8.52,1.97,10.11,5.49,1.13,2.03,.64,5.36-2.04,4.91Z"/><path class="d" d="M9.2,13.41s-.83,1.32-.14,2.09c.03,.03,.22,.31,.35,.27,.09-.03,.13-.21,.11-.93-.02-.71-.04-1.57-.19-1.58-.03,0-.07,.02-.13,.15Z"/></g></g></g></svg>